<svg width="24" height="24" viewBox="0 0 24 24" fill="none" xmlns="http://www.w3.org/2000/svg">
<path d="M23 19C23 19.5304 22.7893 20.0391 22.4142 20.4142C22.0391 20.7893 21.5304 21 21 21H3C2.46957 21 1.96086 20.7893 1.58579 20.4142C1.21071 20.0391 1 19.5304 1 19V8C1 7.46957 1.21071 6.96086 1.58579 6.58579C1.96086 6.21071 2.46957 6 3 6H7L9 3H15L17 6H21C21.5304 6 22.0391 6.21071 22.4142 6.58579C22.7893 6.96086 23 7.46957 23 8V19Z" stroke="#F6F7F8" stroke-width="2" stroke-linecap="round" stroke-linejoin="round"/>
<path d="M14.0833 8L15.75 9.66667L14.0833 11.3333" stroke="#F6F7F8" stroke-width="1.5" stroke-linecap="round" stroke-linejoin="round"/>
<path d="M8.25 12.167V11.3337C8.25 10.8916 8.42559 10.4677 8.73816 10.1551C9.05072 9.84259 9.47464 9.66699 9.91667 9.66699H15.75" stroke="#F6F7F8" stroke-width="1.5" stroke-linecap="round" stroke-linejoin="round"/>
<path d="M9.91667 17.1668L8.25 15.5002L9.91667 13.8335" stroke="#F6F7F8" stroke-width="1.5" stroke-linecap="round" stroke-linejoin="round"/>
<path d="M15.75 13V13.8333C15.75 14.2754 15.5744 14.6993 15.2618 15.0118C14.9493 15.3244 14.5254 15.5 14.0833 15.5H8.25" stroke="#F6F7F8" stroke-width="1.5" stroke-linecap="round" stroke-linejoin="round"/>
</svg>
